<?xml version="1.0" encoding="UTF-8" standalone="no"?>
<!-- Created with Inkscape (http://www.inkscape.org/) -->

<svg
   xmlns:dc="http://purl.org/dc/elements/1.1/"
   xmlns:cc="http://creativecommons.org/ns#"
   xmlns:rdf="http://www.w3.org/1999/02/22-rdf-syntax-ns#"
   xmlns:svg="http://www.w3.org/2000/svg"
   xmlns="http://www.w3.org/2000/svg"
   xmlns:sodipodi="http://sodipodi.sourceforge.net/DTD/sodipodi-0.dtd"
   xmlns:inkscape="http://www.inkscape.org/namespaces/inkscape"
   id="svg2"
   version="1.1"
   inkscape:version="0.91 r"
   xml:space="preserve"
   width="668.13623"
   height="873.61249"
   viewBox="0 0 668.13623 873.61249"
   sodipodi:docname="frame01.svg"><metadata
     id="metadata8"><rdf:RDF><cc:Work
         rdf:about=""><dc:format>image/svg+xml</dc:format><dc:type
           rdf:resource="http://purl.org/dc/dcmitype/StillImage" /><dc:title></dc:title></cc:Work></rdf:RDF></metadata><defs
     id="defs6"><clipPath
       clipPathUnits="userSpaceOnUse"
       id="clipPath34"><path
         d="m 1029,2475 2012,0 0,2060 -2012,0 0,-2060 z"
         id="path36"
         inkscape:connector-curvature="0" /></clipPath><clipPath
       clipPathUnits="userSpaceOnUse"
       id="clipPath46"><path
         d="m 3035,1102 1343,0 0,3433 -1343,0 0,-3433 z"
         id="path48"
         inkscape:connector-curvature="0" /></clipPath><clipPath
       clipPathUnits="userSpaceOnUse"
       id="clipPath58"><path
         d="m 1029,764 2012,0 0,1717 -2012,0 0,-1717 z"
         id="path60"
         inkscape:connector-curvature="0" /></clipPath><clipPath
       clipPathUnits="userSpaceOnUse"
       id="clipPath70"><path
         d="m 3035,764 1343,0 0,344 -1343,0 0,-344 z"
         id="path72"
         inkscape:connector-curvature="0" /></clipPath></defs><sodipodi:namedview
     pagecolor="#ffffff"
     bordercolor="#666666"
     borderopacity="1"
     objecttolerance="10"
     gridtolerance="10"
     guidetolerance="10"
     inkscape:pageopacity="0"
     inkscape:pageshadow="2"
     inkscape:window-width="1855"
     inkscape:window-height="1056"
     id="namedview4"
     showgrid="false"
     inkscape:zoom="0.76407882"
     inkscape:cx="736.45146"
     inkscape:cy="338.80455"
     inkscape:window-x="65"
     inkscape:window-y="24"
     inkscape:window-maximized="1"
     inkscape:current-layer="g12"
     fit-margin-top="0"
     fit-margin-left="0"
     fit-margin-right="0"
     fit-margin-bottom="0" /><g
     id="g10"
     inkscape:groupmode="layer"
     inkscape:label="ink_ext_XXXXXX"
     transform="matrix(1.25,0,0,-1.25,0,873.6125)"><g
       id="g12"
       transform="scale(0.1,0.1)"><g
         id="g7589"><path
           inkscape:connector-curvature="0"
           id="path14"
           style="fill:#131112;fill-opacity:1;fill-rule:nonzero;stroke:none"
           d="m 5,5 5335.09,0 0,6978.9 L 5,6983.9 5,5 Z" /><path
           inkscape:connector-curvature="0"
           id="path16"
           style="fill:#1f1718;fill-opacity:1;fill-rule:nonzero;stroke:none"
           d="m 5340.09,5 0,5 L 10,10 l 0,6968.9 5325.09,0 0,-6973.9 5,0 0,5 0,-5 5,0 0,6983.9 L 0,6988.9 0,0 l 5345.09,0 0,5 -5,0" /><path
           inkscape:connector-curvature="0"
           id="path18"
           style="fill:#ffffff;fill-opacity:1;fill-rule:nonzero;stroke:none"
           d="m 312.684,309.449 4719.73,0 0,6370 -4719.73,0 0,-6370 z" /><path
           inkscape:connector-curvature="0"
           id="path20"
           style="fill:#1f1718;fill-opacity:1;fill-rule:nonzero;stroke:none"
           d="m 5032.41,309.449 0,5 -4714.726,0 0,6360.001 4709.716,0 0.01,-6365.001 5,0 0,5 0,-5 4.99,0 0,6375.001 -4729.716,0 0,-6380.001 4729.716,0 0,5 -4.99,0" /><path
           inkscape:connector-curvature="0"
           id="path22"
           style="fill:#eeeae2;fill-opacity:1;fill-rule:nonzero;stroke:none"
           d="m 591.914,580.461 4161.26,0 0,5827.98 -4161.26,0 0,-5827.98 z" /></g></g></g></svg>